# xmcd
#
# Track frame offsets:
#	150
#	11922
#	29542
#	47730
#	53145
#	67200
#	79802
#	113597
#	122975
#	141157
#	148937
#	157645
#	164877
#	167777
#	193295
#	209645
#	221435
#	250405
#	271497
#	296242
#
# Disc length: 3987 seconds
#
# Revision: 0
# Processed by: cddbd v1.5.1PL0 Copyright (c) Steve Scherf et al.
# Submitted via: dBpowerAMP V4.0
#
DISCID=490f9114
DTITLE=Siren - The Club Rondo
DYEAR=1995
DGENRE=Rock
TTITLE0=Flowering Cherry
TTITLE1=Magdalen
TTITLE2=Like An Angel
TTITLE3=Little Old Death
TTITLE4=Old Age
TTITLE5=On Holiday
TTITLE6=Club Rondo
TTITLE7=Brandy In My Tea
TTITLE8=Scunthorpe Dictator
TTITLE9=Tighten Up
TTITLE10=Bennett And Packet
TTITLE11=Bavaria
TTITLE12=Intro
TTITLE13=Where Are You Going To
TTITLE14=Back To Church
TTITLE15=Get Right Away
TTITLE16=Our Jack
TTITLE17=I'm Alright Here
TTITLE18=If Only
TTITLE19=Outro
EXTD=
EXTT0=
EXTT1=
EXTT2=
EXTT3=
EXTT4=
EXTT5=
EXTT6=
EXTT7=
EXTT8=
EXTT9=
EXTT10=
EXTT11=
EXTT12=
EXTT13=
EXTT14=
EXTT15=
EXTT16=
EXTT17=
EXTT18=
EXTT19=
PLAYORDER=
